<?xml version="1.0" encoding="utf-8"?>
<!-- Generator: Adobe Illustrator 17.0.0, SVG Export Plug-In . SVG Version: 6.00 Build 0)  -->
<svg version="1.2" baseProfile="tiny" id="Layer_1" xmlns="http://www.w3.org/2000/svg" xmlns:xlink="http://www.w3.org/1999/xlink"
	 x="0px" y="0px" width="200px" height="120px" viewBox="0 0 200 120" xml:space="preserve">
<g>
	<g>
		<g>
			<polygon fill="#662F8F" points="21.19,22.902 -7.447,51.539 -7.447,95.476 205.957,95.476 205.957,22.902 			"/>
		</g>
		<g>
			<polygon fill="#90278E" points="21.19,51.539 21.19,22.902 -7.447,51.539 			"/>
		</g>
	</g>
	<g>
		<g>
			<path fill="#FFFFFF" d="M46.094,57.36c0,1.715,0.209,2.872,0.324,3.449h-0.086c-0.474-0.576-0.99-1.342-1.55-2.03L32.534,43.522
				h-7.76v25.931h6.339V54.788c0-1.82,0.439-2.623,0.324-4.352h0.086c0.287,1.152,0.803,1.746,1.55,2.667l12.722,16.349h6.063
				V43.522h-5.762V57.36z"/>
		</g>
		<g>
			<g>
				<polygon fill="#FFFFFF" points="73.922,43.522 71.019,51.038 73.991,58.504 68.134,58.504 66.478,63.114 75.584,63.114 
					77.779,69.452 85.356,69.452 74.378,43.522 				"/>
			</g>
			<g>
				<polygon fill="#FFFFFF" points="71.799,43.522 66.133,43.522 54.897,69.452 62.225,69.452 				"/>
			</g>
		</g>
		<g>
			<g>
				<path fill="#FFFFFF" d="M94.632,60.965l-6.436-17.443h-7.491L91.21,69.452h1.009l2.492-7.825
					C94.684,61.549,94.661,61.045,94.632,60.965z"/>
			</g>
			<g>
				<polygon fill="#FFFFFF" points="94.322,69.452 99.088,69.452 109.722,43.522 102.776,43.522 				"/>
			</g>
		</g>
		<g>
			<g>
				<polygon fill="#FFFFFF" points="123.736,43.522 121.01,50.573 124.165,58.504 117.948,58.504 116.292,63.114 125.757,63.114 
					127.953,69.452 135.53,69.452 124.552,43.522 				"/>
			</g>
			<g>
				<polygon fill="#FFFFFF" points="116.308,43.522 105.071,69.452 112.039,69.452 121.612,43.522 				"/>
			</g>
		</g>
		<g>
			<path fill="#FFFFFF" d="M156.32,59.969c-0.366-0.403-0.75-0.779-1.151-1.128c-0.402-0.35-0.762-0.656-1.192-0.919
				c-0.43-0.262-1.278-0.452-1.278-0.569v-0.07c1.152-0.245,1.942-0.583,2.796-1.015c0.853-0.431,1.554-0.945,2.157-1.54
				c0.603-0.595,1.055-1.262,1.385-2.003c0.33-0.741,0.488-1.527,0.488-2.402c0-4.549-3.753-6.802-11.243-6.802h-11.14v25.931h6.339
				V59.08h2.606c0.43,0,0.829,0.015,1.194,0.16c0.366,0.146,0.717,0.327,1.055,0.601c0.337,0.274,0.67,0.589,1.001,0.974
				c0.33,0.385,0.674,0.968,1.033,1.458l4.801,6.603h8.126l-5.974-7.693C157.019,60.798,156.686,60.371,156.32,59.969z
				 M150.82,53.82c-0.904,0.7-2.103,1.226-3.595,1.226h-3.747v-6.915h3.876c3.229,0,4.844,0.975,4.844,3.168
				C152.198,52.349,151.738,53.109,150.82,53.82z"/>
		</g>
		<g>
			<g>
				<polygon fill="#FFFFFF" points="183.051,43.522 182.093,43.522 179.437,50.39 182.663,58.504 176.305,58.504 174.649,63.114 
					184.256,63.114 186.452,69.452 194.029,69.452 				"/>
			</g>
			<g>
				<polygon fill="#FFFFFF" points="174.806,43.522 163.514,69.452 170.396,69.452 179.969,43.522 				"/>
			</g>
		</g>
	</g>
	<g>
		<path fill="#FFFFFF" d="M86.741,86.09c-0.116-0.213-0.289-0.405-0.52-0.576s-0.492-0.31-0.781-0.413s-0.591-0.182-0.905-0.232
			c-0.935-0.139-1.807-0.442-2.616-0.909c-0.069-0.036-0.143-0.116-0.222-0.236c-0.078-0.119-0.118-0.235-0.118-0.347
			c0-0.406,0.069-0.814,0.205-1.224c0.137-0.41,0.311-0.73,0.524-0.961c0.343-0.384,0.959-0.719,1.849-1.007
			c0.89-0.287,1.893-0.43,3.008-0.43c0.666,0,1.18,0.051,1.544,0.153c0.363,0.101,0.545,0.259,0.545,0.472
			c0,0.347-0.048,0.614-0.142,0.805c-0.095,0.189-0.197,0.316-0.305,0.378c-0.109,0.063-0.3,0.147-0.573,0.253
			c-0.291,0.102-0.544,0.208-0.76,0.319c-0.215,0.111-0.399,0.218-0.552,0.319c-0.152,0.102-0.248,0.153-0.284,0.153
			c-0.046,0-0.069-0.018-0.069-0.055c0-0.078,0.082-0.198,0.246-0.358c0.164-0.159,0.367-0.299,0.607-0.419
			c0.254-0.135,0.382-0.22,0.382-0.258c0-0.059-0.142-0.089-0.423-0.089c-0.856,0-1.647,0.076-2.373,0.229
			c-0.726,0.152-1.298,0.353-1.717,0.603c-0.419,0.249-0.628,0.505-0.628,0.764c0,0.161,0.087,0.276,0.26,0.343
			c0.173,0.067,0.556,0.179,1.148,0.336c0.592,0.158,1.121,0.338,1.589,0.542c0.671,0.287,1.168,0.584,1.492,0.895
			c0.323,0.31,0.485,0.656,0.485,1.041c0,0.264-0.063,0.529-0.191,0.795c-0.127,0.265-0.313,0.509-0.558,0.731
			c-0.245,0.223-0.528,0.405-0.847,0.549c-0.273,0.114-0.617,0.224-1.03,0.325c-0.414,0.102-0.863,0.182-1.346,0.24
			c-0.484,0.058-0.945,0.087-1.385,0.087c-0.809,0-1.46-0.076-1.953-0.229c-0.493-0.153-0.74-0.384-0.74-0.694
			c0-0.139,0.084-0.355,0.25-0.649c0.167-0.294,0.363-0.491,0.59-0.593c0.199-0.079,0.391-0.124,0.576-0.136
			c0.185-0.011,0.278,0.011,0.278,0.066c0,0.013-0.007,0.028-0.021,0.042c-0.014,0.013-0.03,0.025-0.048,0.034
			c-0.019,0.01-0.037,0.019-0.056,0.028c-0.092,0.037-0.167,0.066-0.225,0.087c-0.058,0.022-0.104,0.042-0.139,0.063
			c-0.035,0.022-0.052,0.051-0.052,0.087c0,0.098,0.479,0.146,1.436,0.146c0.833,0,1.515-0.03,2.047-0.09
			c0.532-0.06,1.002-0.169,1.409-0.325C86.038,86.585,86.408,86.367,86.741,86.09z"/>
		<path fill="#FFFFFF" d="M90.292,85.459v0.236c0,0.372,0.091,0.661,0.274,0.87c0.182,0.208,0.422,0.312,0.718,0.312
			c0.309,0,0.629-0.072,0.959-0.218c0.331-0.145,0.66-0.336,0.988-0.576c0.328-0.24,0.727-0.561,1.2-0.964v0.576
			c-0.712,0.858-1.38,1.514-2.004,1.971c-0.623,0.456-1.257,0.685-1.899,0.685c-0.561,0-1.005-0.218-1.332-0.653
			c-0.328-0.434-0.491-1.03-0.491-1.785c0-0.662,0.154-1.262,0.463-1.801c0.309-0.538,0.813-1.107,1.512-1.706
			c0.479-0.41,0.955-0.719,1.427-0.926c0.472-0.208,0.894-0.312,1.266-0.312c0.296,0,0.531,0.067,0.704,0.204
			c0.173,0.135,0.26,0.338,0.26,0.609c0,0.396-0.148,0.791-0.444,1.185c-0.296,0.394-0.748,0.785-1.356,1.172
			C91.928,84.727,91.18,85.1,90.292,85.459z M90.386,84.845c0.567-0.22,1.052-0.495,1.455-0.823
			c0.403-0.328,0.701-0.641,0.893-0.939c0.192-0.3,0.288-0.519,0.288-0.658c0-0.145-0.066-0.217-0.199-0.217
			c-0.113,0-0.298,0.072-0.553,0.217c-0.255,0.146-0.513,0.335-0.774,0.567c-0.262,0.234-0.496,0.507-0.705,0.823
			C90.585,84.129,90.449,84.473,90.386,84.845z"/>
		<path fill="#FFFFFF" d="M95.943,85.459v0.236c0,0.372,0.091,0.661,0.274,0.87c0.182,0.208,0.422,0.312,0.718,0.312
			c0.309,0,0.629-0.072,0.959-0.218c0.331-0.145,0.66-0.336,0.988-0.576c0.328-0.24,0.727-0.561,1.2-0.964v0.576
			c-0.712,0.858-1.38,1.514-2.004,1.971c-0.623,0.456-1.257,0.685-1.899,0.685c-0.561,0-1.005-0.218-1.332-0.653
			c-0.328-0.434-0.491-1.03-0.491-1.785c0-0.662,0.154-1.262,0.463-1.801c0.309-0.538,0.813-1.107,1.512-1.706
			c0.479-0.41,0.955-0.719,1.427-0.926c0.472-0.208,0.894-0.312,1.266-0.312c0.296,0,0.531,0.067,0.704,0.204
			c0.173,0.135,0.26,0.338,0.26,0.609c0,0.396-0.148,0.791-0.444,1.185c-0.296,0.394-0.748,0.785-1.356,1.172
			C97.579,84.727,96.831,85.1,95.943,85.459z M96.038,84.845c0.567-0.22,1.052-0.495,1.455-0.823
			c0.404-0.328,0.701-0.641,0.893-0.939c0.192-0.3,0.288-0.519,0.288-0.658c0-0.145-0.066-0.217-0.199-0.217
			c-0.113,0-0.298,0.072-0.553,0.217c-0.255,0.146-0.513,0.335-0.774,0.567c-0.262,0.234-0.496,0.507-0.705,0.823
			C96.236,84.129,96.1,84.473,96.038,84.845z"/>
		<path fill="#FFFFFF" d="M104.4,85.137c-0.554,0.63-1.05,1.166-1.489,1.607c-0.437,0.441-0.794,0.77-1.067,0.988
			c-0.273,0.217-0.461,0.326-0.562,0.326c-0.164,0-0.348-0.132-0.553-0.397c-0.205-0.265-0.379-0.601-0.525-1.011
			s-0.217-0.826-0.217-1.248c0-0.611,0.296-1.227,0.888-1.848c0.591-0.62,1.266-1.136,2.022-1.545
			c0.755-0.41,1.323-0.614,1.701-0.614c0.308,0,0.611,0.195,0.907,0.587c0.485-1.014,0.947-1.915,1.385-2.703
			c0.437-0.788,0.805-1.374,1.101-1.759c0.295-0.384,0.507-0.576,0.632-0.576c0.139,0,0.266,0.067,0.383,0.202
			c0.117,0.136,0.175,0.289,0.175,0.459c0,0.328-0.24,0.89-0.718,1.686c-0.479,0.797-0.952,1.574-1.418,2.329
			c-0.466,0.756-0.866,1.502-1.2,2.235c-0.335,0.734-0.501,1.413-0.501,2.037c0,0.567,0.182,0.85,0.548,0.85
			c0.22,0,0.497-0.124,0.831-0.373c0.334-0.248,0.809-0.666,1.427-1.251v0.689c-1.361,1.759-2.41,2.637-3.147,2.637
			c-0.296,0-0.508-0.113-0.637-0.34c-0.13-0.226-0.194-0.564-0.194-1.012C104.174,86.489,104.25,85.837,104.4,85.137z M105.1,82.832
			c-0.561,0.189-1.219,0.493-1.975,0.912c-0.756,0.419-1.213,0.707-1.371,0.865c-0.139,0.126-0.261,0.363-0.367,0.708
			c-0.107,0.347-0.161,0.608-0.161,0.784c0,0.107,0.031,0.196,0.095,0.265c0.063,0.07,0.141,0.104,0.236,0.104
			c0.087,0,0.188-0.037,0.301-0.113c0.113-0.075,0.295-0.223,0.544-0.443c0.248-0.22,0.411-0.363,0.487-0.426
			c0.107-0.094,0.344-0.298,0.713-0.609c0.369-0.311,0.638-0.555,0.808-0.732c0.17-0.176,0.316-0.373,0.435-0.59
			C104.964,83.338,105.05,83.096,105.1,82.832z"/>
		<path fill="#FFFFFF" d="M112.669,85.119v0.689c-0.611,0.788-1.182,1.382-1.71,1.781c-0.53,0.4-0.98,0.6-1.351,0.6
			c-0.517,0-0.901-0.27-1.153-0.812c-0.253-0.542-0.378-1.135-0.378-1.777c0-0.246,0.025-0.481,0.076-0.705
			c0.049-0.223,0.11-0.407,0.179-0.553c0.069-0.145,0.198-0.371,0.387-0.681c0.895-1.392,1.714-2.089,2.457-2.089
			c0.384,0,0.577,0.148,0.577,0.444c0,0.201-0.124,0.517-0.373,0.946c-0.249,0.428-0.471,0.734-0.666,0.917
			c-0.548,0.529-0.906,0.897-1.073,1.106c-0.166,0.207-0.251,0.443-0.251,0.708c0,0.226,0.086,0.416,0.255,0.567
			c0.17,0.151,0.39,0.226,0.661,0.226c0.296,0,0.623-0.108,0.978-0.326C111.64,85.946,112.102,85.597,112.669,85.119z
			 M112.026,80.894c-0.157,0-0.307-0.059-0.448-0.179c-0.142-0.119-0.213-0.271-0.213-0.453c0-0.277,0.132-0.587,0.397-0.926
			c0.264-0.341,0.538-0.511,0.821-0.511c0.189,0,0.347,0.058,0.473,0.175c0.125,0.117,0.189,0.285,0.189,0.506
			c0,0.271-0.13,0.57-0.388,0.897C112.599,80.73,112.322,80.894,112.026,80.894z"/>
		<path fill="#FFFFFF" d="M118.954,83.408c-1.109,1.236-1.663,2.096-1.663,2.58c0,0.271,0.11,0.407,0.33,0.407
			c0.183,0,0.422-0.096,0.714-0.289c0.293-0.192,0.752-0.534,1.374-1.025v0.652c-0.894,0.883-1.581,1.519-2.06,1.909
			c-0.479,0.391-0.87,0.587-1.172,0.587c-0.517,0-0.774-0.341-0.774-1.021c0-0.201,0.031-0.4,0.094-0.595s0.149-0.399,0.26-0.609
			c0.11-0.211,0.278-0.513,0.506-0.907c0.226-0.394,0.488-0.84,0.784-1.337c-0.359,0.182-0.809,0.544-1.351,1.086
			c-0.353,0.34-0.652,0.664-0.897,0.968c-0.246,0.306-0.509,0.646-0.79,1.021c-0.279,0.375-0.484,0.626-0.614,0.755
			c-0.129,0.13-0.259,0.194-0.391,0.194c-0.202,0-0.388-0.211-0.558-0.634c-0.17-0.422-0.255-0.913-0.255-1.474
			c0-0.346,0.04-0.617,0.118-0.812c0.078-0.195,0.235-0.473,0.469-0.832c0.434-0.667,0.809-1.157,1.124-1.469
			c0.316-0.312,0.618-0.467,0.907-0.467c0.202,0,0.364,0.035,0.487,0.104c0.123,0.07,0.184,0.177,0.184,0.322
			c0,0.063-0.018,0.129-0.057,0.199c-0.037,0.069-0.079,0.131-0.128,0.189c-0.047,0.057-0.146,0.166-0.298,0.33
			c-0.995,1.103-1.492,1.818-1.492,2.145c0,0.183,0.059,0.275,0.179,0.275c0.076,0,0.222-0.122,0.44-0.364
			c0.217-0.243,0.497-0.561,0.841-0.955c0.343-0.394,0.749-0.805,1.219-1.233c0.47-0.428,1.003-0.841,1.602-1.238
			c0.334-0.232,0.611-0.349,0.831-0.349c0.101,0,0.2,0.139,0.299,0.416c0.098,0.278,0.146,0.558,0.146,0.842
			C119.36,82.914,119.225,83.125,118.954,83.408z"/>
		<path fill="#FFFFFF" d="M127.166,85.752l-3.138,2.58c-0.882,1.525-1.685,2.663-2.409,3.416c-0.725,0.753-1.263,1.13-1.616,1.13
			c-0.189,0-0.284-0.117-0.284-0.349c0-0.454,0.23-1.033,0.69-1.739c0.183-0.277,0.393-0.548,0.629-0.813
			c0.236-0.264,0.46-0.493,0.671-0.684c0.211-0.193,0.49-0.432,0.836-0.719c0.347-0.287,0.583-0.483,0.709-0.59
			c0.63-1.285,1.083-2.268,1.361-2.949c-0.593,0.63-1.109,1.147-1.55,1.55c-0.441,0.402-0.846,0.713-1.214,0.93
			c-0.369,0.218-0.701,0.326-0.997,0.326c-0.322,0-0.618-0.257-0.889-0.77c-0.271-0.514-0.406-1.042-0.406-1.584
			c0-0.252,0.058-0.516,0.175-0.794c0.117-0.277,0.3-0.572,0.548-0.888c0.249-0.316,0.566-0.638,0.95-0.968
			c0.384-0.331,0.835-0.654,1.351-0.97c0.977-0.611,1.736-0.917,2.278-0.917c0.402,0,0.605,0.148,0.605,0.444
			c0,0.41-0.438,0.809-1.314,1.201c-0.535,0.232-1.066,0.542-1.592,0.926c-0.526,0.384-0.952,0.791-1.276,1.224
			c-0.324,0.431-0.487,0.82-0.487,1.167c0,0.17,0.041,0.305,0.123,0.406c0.082,0.101,0.189,0.151,0.322,0.151
			c0.22,0,0.472-0.1,0.755-0.302c0.284-0.201,0.703-0.558,1.257-1.067c0.252-0.234,0.588-0.609,1.006-1.13
			c0.419-0.519,0.766-0.917,1.041-1.19c0.273-0.275,0.52-0.412,0.741-0.412c0.126,0,0.229,0.04,0.307,0.118
			c0.079,0.079,0.119,0.194,0.119,0.346c0,0.289-0.116,0.711-0.346,1.261c-0.23,0.552-0.644,1.454-1.243,2.708l2.287-1.663V85.752z"
			/>
		<path fill="#FFFFFF" d="M136.891,85.487l-1.683,1.427c-0.8,0.7-1.336,1.049-1.607,1.049c-0.246,0-0.503-0.282-0.774-0.846
			c-0.271-0.564-0.407-1.056-0.407-1.479c0-0.359,0.055-0.662,0.166-0.912c0.11-0.249,0.3-0.572,0.571-0.968
			c0.384-0.536,0.753-0.989,1.106-1.361c0.353-0.372,0.665-0.66,0.936-0.865s0.46-0.307,0.567-0.307c0.17,0,0.335,0.088,0.496,0.265
			c0.16,0.176,0.241,0.359,0.241,0.548c0,0.119-0.087,0.312-0.26,0.576c-0.173,0.265-0.447,0.601-0.823,1.007
			c-0.375,0.406-0.896,0.893-1.563,1.46l-0.179,0.52c-0.051,0.1-0.076,0.189-0.076,0.264c0,0.171,0.086,0.255,0.255,0.255
			c0.176,0,0.59-0.223,1.243-0.671c0.652-0.447,1.359-1.049,2.121-1.804c0.296-0.296,0.542-0.558,0.737-0.785
			c0.195-0.226,0.372-0.44,0.53-0.637c0.157-0.199,0.288-0.348,0.391-0.449c0.104-0.101,0.198-0.154,0.279-0.16
			c0.157-0.019,0.279,0.047,0.369,0.198c0.088,0.152,0.131,0.376,0.131,0.671c0,0.171-0.075,0.383-0.226,0.638
			c-0.151,0.255-0.435,0.69-0.85,1.304c-0.416,0.614-0.83,1.25-1.243,1.909c-0.412,0.658-0.833,1.4-1.261,2.225
			c0.018-0.018,0.212-0.207,0.581-0.566c0.369-0.359,0.758-0.735,1.167-1.125c0.41-0.39,0.747-0.705,1.012-0.941
			s0.595-0.512,0.992-0.826v0.632c-0.85,0.914-1.621,1.78-2.311,2.599c-0.689,0.819-1.223,1.474-1.597,1.966
			s-0.594,0.778-0.656,0.86c-0.17,0.22-0.323,0.426-0.458,0.619c-0.136,0.193-0.249,0.34-0.341,0.444
			c-0.092,0.104-0.165,0.155-0.222,0.155c-0.132,0-0.251-0.13-0.355-0.391c-0.104-0.261-0.155-0.494-0.155-0.695
			c0-0.183,0.035-0.343,0.104-0.482C134.292,89.787,135.309,88.014,136.891,85.487z"/>
		<path fill="#FFFFFF" d="M145.869,85.1v0.632c-0.417,0.378-0.75,0.631-1.002,0.756c-0.252,0.126-0.614,0.177-1.086,0.152
			c-0.819,0.97-1.541,1.455-2.164,1.455c-0.353,0-0.674-0.117-0.964-0.349c-0.29-0.234-0.522-0.552-0.695-0.955
			c-0.173-0.402-0.26-0.853-0.26-1.351c0-0.402,0.134-0.85,0.402-1.342c0.267-0.491,0.614-0.949,1.039-1.374
			c0.425-0.426,0.88-0.77,1.365-1.031c0.485-0.261,0.936-0.391,1.351-0.391c0.296,0,0.53,0.046,0.7,0.136
			c0.17,0.092,0.255,0.219,0.255,0.383c0,0.126-0.072,0.271-0.218,0.435c0.24,0.051,0.403,0.134,0.491,0.251
			c0.089,0.117,0.132,0.329,0.132,0.638c0,0.302-0.071,0.683-0.212,1.143c-0.142,0.46-0.336,0.891-0.582,1.295l0.17,0.17h0.142
			c0.107,0,0.213-0.027,0.317-0.081c0.104-0.053,0.196-0.11,0.278-0.17C145.411,85.442,145.591,85.307,145.869,85.1z
			 M143.921,82.614c-0.523,0.316-0.97,0.601-1.342,0.855c-0.372,0.255-0.687,0.514-0.944,0.776c-0.259,0.261-0.432,0.524-0.52,0.789
			c-0.158,0.706-0.236,1.086-0.236,1.143c0,0.416,0.289,0.624,0.87,0.624c0.271,0,0.724-0.232,1.36-0.7
			c-0.107-0.295-0.16-0.579-0.16-0.85c0-0.396,0.082-0.801,0.246-1.214C143.358,83.625,143.6,83.15,143.921,82.614z"/>
		<path fill="#FFFFFF" d="M150.3,84.476c-0.913,1.209-1.608,2.069-2.084,2.58s-0.865,0.765-1.167,0.765
			c-0.24,0-0.46-0.099-0.661-0.298c-0.202-0.198-0.358-0.466-0.469-0.803c-0.11-0.336-0.165-0.697-0.165-1.082
			c0-0.252,0.024-0.478,0.071-0.681c0.047-0.201,0.137-0.424,0.27-0.666c0.131-0.242,0.307-0.506,0.524-0.789
			c0.217-0.284,0.483-0.605,0.799-0.964c0.189-0.22,0.348-0.407,0.477-0.558c0.129-0.152,0.255-0.254,0.378-0.307
			c0.123-0.054,0.323-0.081,0.6-0.081c0.202,0,0.394,0.026,0.577,0.081c0.183,0.053,0.273,0.108,0.273,0.165
			c0,0.113-0.093,0.318-0.278,0.614c-0.186,0.296-0.485,0.656-0.897,1.082c-0.413,0.425-0.89,0.843-1.432,1.253
			c-0.12,0.372-0.179,0.655-0.179,0.85c0,0.271,0.104,0.406,0.312,0.406c0.076,0,0.201-0.064,0.378-0.193
			c0.176-0.13,0.473-0.378,0.893-0.747c0.419-0.369,0.795-0.695,1.13-0.978c0.246-0.214,0.53-0.535,0.855-0.96
			c0.324-0.425,0.587-0.744,0.789-0.959c0.466-0.491,0.784-0.811,0.954-0.959c0.171-0.148,0.334-0.223,0.491-0.223
			c0.152,0,0.254,0.047,0.307,0.142c0.054,0.094,0.081,0.287,0.081,0.576c0,0.132-0.013,0.24-0.037,0.322
			c-0.025,0.082-0.078,0.188-0.157,0.317c-0.078,0.129-0.237,0.367-0.477,0.713c-0.24,0.347-0.523,0.756-0.85,1.229
			c-0.177,0.253-0.331,0.529-0.464,0.827c-0.132,0.299-0.198,0.524-0.198,0.676c0,0.328,0.129,0.491,0.387,0.491
			c0.214,0,0.464-0.088,0.747-0.265c0.283-0.176,0.718-0.494,1.304-0.954v0.632c-0.737,0.681-1.283,1.176-1.636,1.484
			c-0.353,0.31-0.658,0.542-0.917,0.7c-0.258,0.158-0.503,0.236-0.737,0.236c-0.529,0-0.794-0.314-0.794-0.946
			c0-0.238,0.079-0.561,0.236-0.968C149.692,85.832,149.947,85.245,150.3,84.476z"/>
		<path fill="#FFFFFF" d="M153.202,85.847v-0.614c0.341-0.403,0.599-0.747,0.774-1.031c-0.201-0.069-0.348-0.154-0.438-0.254
			c-0.092-0.101-0.137-0.253-0.137-0.454c0-0.226,0.094-0.513,0.283-0.86s0.423-0.671,0.7-0.973
			c0.277-0.302,0.529-0.497,0.756-0.587c0.088-0.043,0.172-0.066,0.254-0.066c0.126,0,0.189,0.06,0.189,0.181
			c0,0.107-0.098,0.324-0.293,0.652c1.298-0.201,2.117-0.302,2.457-0.302c0.132,0,0.224,0.012,0.275,0.037
			c0.106,0.057,0.195,0.189,0.264,0.397c0.07,0.207,0.105,0.416,0.105,0.624c0,0.131-0.059,0.275-0.176,0.43
			c-0.116,0.154-0.316,0.379-0.6,0.676c-0.334,0.359-0.614,0.749-0.841,1.172c-0.226,0.422-0.341,0.74-0.341,0.954
			c0,0.296,0.183,0.444,0.548,0.444c0.384,0,1.053-0.391,2.004-1.172v0.632c-0.523,0.549-0.955,0.98-1.295,1.295
			c-0.341,0.316-0.655,0.566-0.945,0.752c-0.289,0.187-0.548,0.279-0.774,0.279c-0.265,0-0.485-0.122-0.661-0.364
			c-0.177-0.243-0.265-0.594-0.265-1.054c0-0.271,0.07-0.579,0.208-0.926c0.139-0.347,0.341-0.723,0.609-1.13
			c0.267-0.406,0.569-0.811,0.902-1.214c-0.176,0.037-0.375,0.077-0.595,0.118c-0.22,0.041-0.454,0.083-0.7,0.128
			c-0.246,0.045-0.435,0.078-0.567,0.104C154.512,84.501,153.945,85.21,153.202,85.847z"/>
		<path fill="#FFFFFF" d="M167.698,80.214h0.407c0.334-0.597,0.636-1.021,0.907-1.271c0.271-0.248,0.579-0.373,0.926-0.373
			c0.347,0,0.52,0.079,0.52,0.236c0,0.076-0.136,0.281-0.407,0.614c-0.271,0.335-0.476,0.614-0.614,0.842
			c0.214,0.025,0.405,0.047,0.572,0.066c0.166,0.018,0.298,0.034,0.391,0.047c-0.359,0.667-0.809,1.351-1.351,2.05
			c-0.176-0.012-0.324-0.023-0.443-0.033c-0.12-0.01-0.241-0.019-0.364-0.029c-0.123-0.008-0.273-0.02-0.449-0.033
			c-0.341,0.548-0.625,1.038-0.855,1.469c-0.23,0.431-0.406,0.827-0.529,1.186c-0.123,0.359-0.184,0.699-0.184,1.02
			c0,0.435,0.172,0.652,0.519,0.652c0.24,0,0.553-0.128,0.941-0.382c0.387-0.255,0.906-0.648,1.554-1.177v0.632
			c-1.701,1.846-2.957,2.769-3.77,2.769c-0.284,0-0.512-0.11-0.685-0.33c-0.173-0.22-0.26-0.505-0.26-0.85
			c0-0.234,0.049-0.511,0.147-0.832s0.272-0.806,0.524-1.455c-0.088,0.076-0.171,0.149-0.251,0.222
			c-0.078,0.072-0.151,0.139-0.217,0.199c-0.066,0.06-0.137,0.123-0.213,0.189c-0.075,0.066-0.151,0.134-0.226,0.204v-0.653
			c0.661-0.554,1.462-1.527,2.4-2.92c-0.094-0.006-0.183-0.011-0.265-0.014c-0.082-0.002-0.179-0.005-0.293-0.005
			c-0.372,0-0.649,0.025-0.831,0.076c-0.076,0.019-0.147,0.04-0.213,0.061c-0.066,0.022-0.112,0.033-0.137,0.033
			c-0.025,0-0.037-0.018-0.037-0.057c0-0.207,0.129-0.519,0.388-0.935c0.207-0.353,0.405-0.614,0.59-0.785
			c0.186-0.17,0.413-0.284,0.681-0.344C166.836,80.244,167.213,80.214,167.698,80.214z"/>
		<path fill="#FFFFFF" d="M170.326,83.427c0.958-0.87,1.886-1.515,2.787-1.937c0.901-0.423,1.597-0.634,2.089-0.634
			c0.132,0,0.255,0.055,0.369,0.165c0.113,0.111,0.204,0.238,0.27,0.383c0.066,0.145,0.099,0.252,0.099,0.322
			c0,0.113-0.045,0.196-0.132,0.251c-0.088,0.053-0.242,0.118-0.463,0.194c0.043,0.1,0.1,0.23,0.17,0.387
			c0.069,0.158,0.123,0.285,0.16,0.383c0.039,0.098,0.057,0.184,0.057,0.26c0,0.151-0.152,0.432-0.458,0.846
			c-0.306,0.413-0.52,0.717-0.643,0.912c-0.123,0.195-0.184,0.435-0.184,0.718c0,0.467,0.214,0.7,0.643,0.7
			c0.441,0,1.131-0.413,2.069-1.238v0.577c-1.594,1.771-2.734,2.656-3.421,2.656c-0.246,0-0.42-0.081-0.525-0.242
			c-0.104-0.16-0.155-0.397-0.155-0.713c0-0.497,0.179-1.219,0.538-2.164c-0.92,1.021-1.603,1.748-2.05,2.179
			c-0.448,0.431-0.817,0.647-1.106,0.647c-0.139,0-0.312-0.119-0.52-0.359c-0.207-0.24-0.391-0.549-0.553-0.931
			c-0.16-0.381-0.241-0.776-0.241-1.185c0-0.296,0.029-0.543,0.086-0.742c0.057-0.199,0.166-0.402,0.33-0.609
			C169.704,84.041,169.966,83.768,170.326,83.427z M174.852,82.388c-1.638,0.75-2.805,1.386-3.501,1.909
			c-0.696,0.523-1.044,1.061-1.044,1.616c0,0.201,0.035,0.366,0.104,0.495c0.07,0.13,0.164,0.194,0.284,0.194
			c0.069,0,0.192-0.043,0.369-0.132c0.661-0.39,1.266-0.899,1.814-1.526C173.425,84.317,174.084,83.464,174.852,82.388z"/>
		<path fill="#FFFFFF" d="M177.035,85.383v-0.226c1.626-1.714,2.744-2.914,3.354-3.6c0.139-0.776,0.473-1.164,1.002-1.164
			c0.132,0,0.275,0.039,0.425,0.114l0.057,0.179c-0.025,0.075-0.037,0.182-0.037,0.32c0,0.12,0.046,0.342,0.137,0.667
			c0.09,0.324,0.161,0.596,0.212,0.817c0.051,0.22,0.076,0.47,0.076,0.747c0,0.416-0.094,0.814-0.283,1.196
			c-0.189,0.381-0.464,0.747-0.823,1.096s-0.823,0.707-1.389,1.072c0.226,0.039,0.406,0.057,0.538,0.057
			c0.258,0,0.537-0.064,0.836-0.193c0.3-0.13,0.605-0.304,0.917-0.52c0.312-0.217,0.676-0.499,1.092-0.846v0.632
			c-0.807,0.788-1.528,1.385-2.164,1.791c-0.637,0.407-1.185,0.609-1.644,0.609c-0.593,0-1.141-0.252-1.645-0.755
			c-0.296-0.302-0.481-0.593-0.553-0.87C177.071,86.231,177.035,85.855,177.035,85.383z M180.56,83.938l-0.171-1.38
			c-0.39,0.441-1.225,1.289-2.504,2.543c0.378,0.082,0.637,0.192,0.776,0.33c0.139,0.14,0.334,0.407,0.585,0.803
			c0.429-0.176,0.758-0.417,0.988-0.723c0.23-0.306,0.344-0.723,0.344-1.251c0-0.064-0.001-0.12-0.005-0.171
			C180.571,84.038,180.566,83.988,180.56,83.938z"/>
		<path fill="#FFFFFF" d="M186.428,80.214h0.407c0.334-0.597,0.636-1.021,0.907-1.271c0.271-0.248,0.579-0.373,0.926-0.373
			c0.347,0,0.52,0.079,0.52,0.236c0,0.076-0.136,0.281-0.407,0.614c-0.271,0.335-0.476,0.614-0.614,0.842
			c0.214,0.025,0.405,0.047,0.572,0.066c0.166,0.018,0.298,0.034,0.391,0.047c-0.359,0.667-0.809,1.351-1.351,2.05
			c-0.176-0.012-0.324-0.023-0.443-0.033c-0.12-0.01-0.241-0.019-0.364-0.029c-0.123-0.008-0.273-0.02-0.449-0.033
			c-0.341,0.548-0.625,1.038-0.855,1.469s-0.406,0.827-0.529,1.186c-0.123,0.359-0.184,0.699-0.184,1.02
			c0,0.435,0.172,0.652,0.519,0.652c0.24,0,0.553-0.128,0.941-0.382c0.387-0.255,0.906-0.648,1.554-1.177v0.632
			c-1.701,1.846-2.957,2.769-3.77,2.769c-0.284,0-0.512-0.11-0.685-0.33c-0.173-0.22-0.26-0.505-0.26-0.85
			c0-0.234,0.049-0.511,0.147-0.832c0.098-0.322,0.272-0.806,0.524-1.455c-0.088,0.076-0.171,0.149-0.251,0.222
			c-0.078,0.072-0.151,0.139-0.217,0.199c-0.066,0.06-0.137,0.123-0.213,0.189c-0.075,0.066-0.151,0.134-0.226,0.204v-0.653
			c0.661-0.554,1.462-1.527,2.4-2.92c-0.094-0.006-0.183-0.011-0.265-0.014c-0.082-0.002-0.179-0.005-0.293-0.005
			c-0.372,0-0.649,0.025-0.831,0.076c-0.076,0.019-0.147,0.04-0.213,0.061c-0.066,0.022-0.112,0.033-0.137,0.033
			c-0.025,0-0.037-0.018-0.037-0.057c0-0.207,0.129-0.519,0.388-0.935c0.207-0.353,0.405-0.614,0.59-0.785
			c0.185-0.17,0.413-0.284,0.681-0.344C185.567,80.244,185.944,80.214,186.428,80.214z"/>
		<path fill="#FFFFFF" d="M189.462,85.459v0.236c0,0.372,0.092,0.661,0.273,0.87c0.183,0.208,0.423,0.312,0.719,0.312
			c0.308,0,0.628-0.072,0.959-0.218c0.331-0.145,0.66-0.336,0.988-0.576c0.328-0.24,0.727-0.561,1.2-0.964v0.576
			c-0.712,0.858-1.379,1.514-2.003,1.971c-0.624,0.456-1.256,0.685-1.899,0.685c-0.561,0-1.005-0.218-1.332-0.653
			c-0.328-0.434-0.491-1.03-0.491-1.785c0-0.662,0.154-1.262,0.463-1.801c0.308-0.538,0.813-1.107,1.513-1.706
			c0.478-0.41,0.954-0.719,1.426-0.926c0.473-0.208,0.895-0.312,1.267-0.312c0.296,0,0.53,0.067,0.703,0.204
			c0.173,0.135,0.26,0.338,0.26,0.609c0,0.396-0.148,0.791-0.444,1.185c-0.296,0.394-0.748,0.785-1.356,1.172
			C191.098,84.727,190.35,85.1,189.462,85.459z M189.556,84.845c0.567-0.22,1.053-0.495,1.456-0.823
			c0.402-0.328,0.7-0.641,0.893-0.939c0.193-0.3,0.288-0.519,0.288-0.658c0-0.145-0.066-0.217-0.198-0.217
			c-0.114,0-0.299,0.072-0.553,0.217c-0.255,0.146-0.514,0.335-0.776,0.567c-0.261,0.234-0.496,0.507-0.703,0.823
			C189.755,84.129,189.62,84.473,189.556,84.845z"/>
	</g>
</g>
</svg>
